<svg width="32" height="32" viewBox="0 0 32 32" fill="none" xmlns="http://www.w3.org/2000/svg">
<path d="M15.936 11.5589C18.0201 11.5589 19.7135 9.86294 19.7135 7.78055C19.7135 5.69816 18.0179 4 15.936 4C13.854 4 12.1562 5.69595 12.1562 7.77834C12.1562 9.86074 13.8518 11.5589 15.936 11.5589ZM15.936 5.54579C17.1679 5.54579 18.168 6.54834 18.168 7.77834C18.168 9.00835 17.1657 10.0109 15.936 10.0109C14.7062 10.0109 13.7039 9.00835 13.7039 7.77834C13.7039 6.54834 14.704 5.54579 15.936 5.54579Z" fill="#40749C"/>
<path d="M8.5182 8.51078C9.12908 8.51078 9.6243 8.01545 9.6243 7.40444C9.6243 6.79342 9.12908 6.2981 8.5182 6.2981C7.90732 6.2981 7.41211 6.79342 7.41211 7.40444C7.41211 8.01545 7.90732 8.51078 8.5182 8.51078Z" fill="#799EB9"/>
<path d="M5.45766 13.5606C6.06854 13.5606 6.56375 13.0653 6.56375 12.4542C6.56375 11.8432 6.06854 11.3479 5.45766 11.3479C4.84678 11.3479 4.35156 11.8432 4.35156 12.4542C4.35156 13.0653 4.84678 13.5606 5.45766 13.5606Z" fill="#799EB9"/>
<path d="M22.9362 8.51078C23.5477 8.51078 24.0423 8.01613 24.0423 7.40444C24.0423 6.79275 23.5477 6.2981 22.9362 6.2981C22.3246 6.2981 21.8301 6.79275 21.8301 7.40444C21.8323 8.01613 22.3268 8.51078 22.9362 8.51078Z" fill="#799EB9"/>
<path d="M25.9928 13.5562C26.6044 13.5562 27.0989 13.0615 27.0989 12.4498C27.0989 11.8382 26.6044 11.3435 25.9928 11.3435C25.3813 11.3435 24.8867 11.8382 24.8867 12.4498C24.8867 13.0615 25.3813 13.5562 25.9928 13.5562Z" fill="#799EB9"/>
<path d="M26.2171 21.3532C25.5879 20.9403 24.7931 20.7062 23.9188 20.6775C22.5897 20.6333 21.2143 20.9314 19.9647 21.4945V15.8414C22.7355 18.244 27.2835 18.2771 27.5153 18.2771V16.7313C27.4557 16.7313 21.5742 16.6916 19.883 13.282L18.417 13.6243V22.3734C17.8563 22.7687 17.3441 23.2236 16.9069 23.7315C16.8142 23.8397 16.7237 23.9501 16.6376 24.0627C16.3749 24.4028 16.1386 24.7606 15.9333 25.1315C15.728 24.7606 15.494 24.4028 15.229 24.0627C15.1429 23.9501 15.0524 23.8397 14.9597 23.7315C14.5225 23.2236 14.0103 22.7687 13.4496 22.3734V13.6221L11.9836 13.2798C10.3079 16.6673 4.45067 16.7291 4.35353 16.7291V18.2749C4.58534 18.2749 9.13336 18.2418 11.9041 15.8392V21.4923C10.6545 20.9292 9.27907 20.6311 7.94999 20.6753C7.07571 20.7062 6.28091 20.938 5.6517 21.351C4.33145 22.2188 3.69561 23.9192 4.14158 25.3965C4.7708 27.4745 6.63857 28.0001 7.76895 28.0001C7.8661 28.0001 7.95661 27.9957 8.04051 27.989H15.9201H15.9488H23.8283C23.9122 27.9957 24.0049 28.0001 24.0999 28.0001C25.2302 28.0001 27.098 27.4745 27.7272 25.3965C28.1754 23.9192 27.5396 22.2188 26.2171 21.3532ZM8.00739 26.4455L7.93674 26.4477C7.75129 26.4631 6.1065 26.5537 5.62079 24.9505C5.37131 24.1268 5.74884 23.1375 6.49728 22.645C6.89026 22.3867 7.41129 22.2409 8.00298 22.2211C8.07583 22.2188 8.1509 22.2166 8.22375 22.2166C10.2924 22.2166 12.4561 23.1927 13.7896 24.7407C13.8646 24.8268 13.9375 24.9173 14.0081 25.0079C14.3481 25.4473 14.6351 25.9331 14.8603 26.4455H8.00739ZM26.248 24.9505C25.7623 26.5537 24.1197 26.4631 23.9387 26.4477L17.0107 26.4433C17.2359 25.9309 17.5229 25.4451 17.8629 25.0057C17.9335 24.9151 18.0064 24.8268 18.0815 24.7385C19.4613 23.1353 21.7375 22.1438 23.868 22.2188C24.4597 22.2387 24.9808 22.3867 25.3737 22.6428C26.12 23.1353 26.4975 24.1268 26.248 24.9505Z" fill="#40749C"/>
</svg>
