<svg width="32" height="32" viewBox="0 0 32 32" fill="none" xmlns="http://www.w3.org/2000/svg">
<rect width="32" height="32" fill="black"/>
<path d="M8.46453 11.2444C8.46453 11.2444 7.84341 9.38103 8.77509 8.44935C9.70677 7.51767 11.5701 7.82823 11.5701 7.82823C11.5701 7.82823 11.5701 5.96488 12.8124 5.34376C14.0546 4.72264 15.918 5.6543 15.918 5.6543C15.918 5.6543 17.1602 3.5691 19.0236 4.10153C20.8869 4.63396 20.8869 6.89658 20.8869 6.89658C20.8869 6.89658 22.4397 6.8966 23.3714 8.13879C24.3031 9.38103 23.3714 11.2444 23.3714 11.2444" stroke="white" stroke-width="1.33225" stroke-linecap="round" stroke-linejoin="round"/>
<path d="M22.5619 26.0691L25.496 12.8656C25.6809 12.0336 25.0478 11.2444 24.1955 11.2444H7.64128C6.78897 11.2444 6.15586 12.0336 6.34075 12.8656L9.27482 26.0691C9.48209 27.0018 9.58575 27.4681 9.92637 27.7414C10.267 28.0146 10.7447 28.0146 11.7002 28.0146H20.1366C21.092 28.0146 21.5697 28.0146 21.9104 27.7414C22.251 27.4681 22.3547 27.0018 22.5619 26.0691Z" fill="#F5C518"/>
<path d="M18.6367 26.3702L19.3028 13.0476" stroke="black" stroke-width="1.33225" stroke-linecap="round" stroke-linejoin="round"/>
<path d="M13.3087 26.3116L12.6426 12.989" stroke="black" stroke-width="1.33225" stroke-linecap="round" stroke-linejoin="round"/>
</svg>
