<svg width="122" height="41" viewBox="0 0 122 41" fill="none" xmlns="http://www.w3.org/2000/svg">
<g clip-path="url(#clip0_1680_18154)">
<path d="M47.4913 3.98633C50.3643 3.98633 51.8324 5.99505 51.8324 8.65215C51.8324 12.7204 49.2252 15.581 46.0484 15.581C44.3525 15.581 43.2514 14.8436 42.7957 14.1571L41.6946 19.5602H38.3027L41.1504 6.05861C41.3276 5.16867 41.3529 4.55843 41.3529 4.20246H44.6436C44.6436 4.60928 44.6436 5.07968 44.5803 5.27038C45.1372 4.58386 46.2509 3.98633 47.4913 3.98633ZM43.669 10.2667C43.669 11.7924 44.5803 12.5424 45.7194 12.5424C46.9217 12.5424 48.4152 11.4491 48.4152 9.1734C48.4152 7.69864 47.5292 6.93584 46.3648 6.93584C44.7575 6.93584 43.669 8.56315 43.669 10.2667Z" fill="white"/>
<path d="M57.7674 15.6447C54.6919 15.6447 52.6289 13.3817 52.6289 10.4322C52.6289 6.47834 55.5272 3.85938 58.8812 3.85938C62.0199 3.85938 64.0196 6.12236 64.0196 9.04644C64.0196 12.5935 61.463 15.6447 57.7674 15.6447ZM55.9702 10.2796C55.9702 11.7035 56.8435 12.5426 57.9952 12.5426C59.1469 12.5426 60.6657 11.5128 60.6657 9.21172C60.6657 7.73696 59.843 6.99959 58.6407 6.97416C57.008 6.97416 55.9702 8.58876 55.9702 10.2796Z" fill="white"/>
<path d="M72.6514 3.98633C75.5244 3.98633 76.9925 5.99505 76.9925 8.65215C76.9925 12.7204 74.3853 15.581 71.2086 15.581C69.5126 15.581 68.4115 14.8436 67.9559 14.1571L66.8421 19.5602H63.4629L66.3106 6.05861C66.4878 5.16867 66.5131 4.55843 66.5131 4.20246H69.8037C69.8037 4.60928 69.8037 5.07968 69.7404 5.27038C70.2847 4.58386 71.3984 3.98633 72.6514 3.98633ZM68.8165 10.2667C68.8165 11.7924 69.7278 12.5424 70.8669 12.5424C72.0692 12.5424 73.5627 11.4491 73.5627 9.1734C73.5627 7.69864 72.6767 6.93584 71.5123 6.93584C69.905 6.93584 68.8165 8.56315 68.8165 10.2667Z" fill="white"/>
<path d="M86.3714 8.56333C86.2195 7.76239 85.5867 6.99959 84.3084 6.99959C83.0301 6.99959 81.5493 8.09294 81.5493 10.3051C81.5493 11.7163 82.4606 12.5172 83.7515 12.5172C84.84 12.5172 85.5741 11.8688 85.9537 11.106L88.7128 12.1612C87.9788 13.9538 86.1942 15.6447 83.5111 15.6447C80.5242 15.6447 78.2207 13.4961 78.2207 10.3686C78.2207 6.36392 81.2709 3.85938 84.5615 3.85938C87.5611 3.85938 89.1178 5.7791 89.4342 7.69882L86.3714 8.56333Z" fill="white"/>
<path d="M94.8143 15.6457C91.7388 15.6457 89.6758 13.3827 89.6758 10.4332C89.6758 6.49201 92.5741 3.87305 95.928 3.87305C99.0668 3.87305 101.067 6.13603 101.067 9.06012C101.067 12.5944 98.5099 15.6457 94.8143 15.6457ZM93.0171 10.2806C93.0171 11.7045 93.8904 12.5436 95.0421 12.5436C96.1938 12.5436 97.7126 11.5138 97.7126 9.21268C97.7126 7.73792 96.8899 7.00054 95.6876 6.97512C94.0675 6.97512 93.0171 8.58972 93.0171 10.2806Z" fill="white"/>
<path d="M108.76 7.41877C107.621 7.41877 106.469 8.06715 106.001 10.2284L104.912 15.3138H101.533L103.495 6.05843C103.672 5.16849 103.697 4.55825 103.697 4.20228H106.988C106.988 4.25313 106.988 4.91423 106.9 5.41005C107.608 4.43112 108.608 4.11328 109.659 4.11328C110.165 4.11328 110.62 4.2277 110.81 4.3167L110.102 7.62218C109.659 7.49505 109.367 7.41877 108.76 7.41877Z" fill="white"/>
<path d="M117.076 15.315L118.316 9.44145C118.43 8.97105 118.455 8.65321 118.455 8.47523C118.455 7.55986 117.961 6.9369 116.924 6.9369C115.886 6.9369 115.215 7.76328 114.962 8.88206L113.582 15.315H110.203L112.14 6.05968C112.317 5.20788 112.342 4.69935 112.342 4.20352H115.633C115.633 4.34337 115.633 4.85191 115.569 5.25874C116.253 4.31794 117.481 3.92383 118.531 3.92383C120.847 3.92383 121.999 5.48758 121.999 7.49629C121.999 7.90312 121.948 8.29724 121.86 8.72949L120.467 15.315H117.076Z" fill="white"/>
<path d="M44.3532 31.625C44.1887 30.7986 43.5559 30.0231 42.2396 30.0231C40.9233 30.0231 39.4172 31.1419 39.4172 33.4049C39.4172 34.8415 40.3538 35.6679 41.6701 35.6679C42.7838 35.6679 43.5432 35.0068 43.9229 34.2313L46.7453 35.3119C45.9985 37.1426 44.176 38.8844 41.4169 38.8844C38.3667 38.8717 36 36.6722 36 33.4685C36 29.3747 39.1135 26.8066 42.4927 26.8066C45.5682 26.8066 47.1629 28.7772 47.4793 30.7351L44.3532 31.625Z" fill="#F5C518"/>
<path d="M55.3523 30.454C54.1879 30.454 53.0108 31.1151 52.5299 33.34L51.4161 38.527H47.9609L49.9606 29.0556C50.1378 28.1402 50.1631 27.5172 50.1631 27.1613H53.5297C53.5297 27.2121 53.5297 27.8986 53.4411 28.3945C54.1752 27.3901 55.1877 27.0723 56.2635 27.0723C56.7824 27.0723 57.2381 27.1867 57.4532 27.2757L56.7191 30.6574C56.2635 30.5176 55.9724 30.454 55.3523 30.454Z" fill="#F5C518"/>
<path d="M57.377 38.5279L59.7943 27.1621H63.2495L60.8321 38.5279H57.377ZM62.4395 21.6445C63.5153 21.6445 64.2367 22.3946 64.2367 23.4117C64.2367 24.7339 63.1609 25.6111 62.0092 25.6111C60.9587 25.6111 60.212 24.861 60.212 23.844C60.212 22.6108 61.1865 21.6445 62.4395 21.6445Z" fill="#F5C518"/>
<path d="M68.8806 34.3714C68.8553 34.5113 68.83 34.6511 68.83 34.7655C68.83 35.4775 69.3109 35.7445 69.9943 35.7445C70.2728 35.7445 70.5639 35.6936 70.8423 35.63L70.2475 38.3761C70.1083 38.4397 69.564 38.694 68.6781 38.694C66.5645 38.694 65.2862 37.4862 65.2862 35.63C65.2862 35.3122 65.3368 34.9944 65.4001 34.6511L66.3113 30.2141H64.3496L64.9824 27.1756H65.5267C66.8049 27.1756 67.3998 26.4891 67.6656 25.3195L68.0073 23.8574H71.1081L70.3994 27.1756H72.5889L71.9308 30.2141H69.7665L68.8806 34.3714Z" fill="#F5C518"/>
<path d="M72.8164 38.5279L75.2338 27.1621H78.689L76.2716 38.5279H72.8164ZM77.879 21.6445C78.9547 21.6445 79.6762 22.3946 79.6762 23.4117C79.6762 24.7339 78.6004 25.6111 77.4486 25.6111C76.3982 25.6111 75.6514 24.861 75.6514 23.844C75.6388 22.6108 76.626 21.6445 77.879 21.6445Z" fill="#F5C518"/>
<path d="M88.0309 31.625C87.8664 30.7986 87.2336 30.0231 85.9173 30.0231C84.6011 30.0231 83.095 31.1419 83.095 33.4049C83.095 34.8415 84.0315 35.6679 85.3478 35.6679C86.4616 35.6679 87.2209 35.0068 87.6006 34.2313L90.423 35.2992C89.6763 37.1299 87.8538 38.8717 85.0947 38.8717C82.0445 38.8717 79.6777 36.6722 79.6777 33.4685C79.6777 29.3747 82.7912 26.8066 86.1705 26.8066C89.2459 26.8066 90.8407 28.7772 91.1571 30.7351L88.0309 31.625Z" fill="#F5C518"/>
<path d="M94.701 34.6117C94.6757 34.7261 94.6757 34.7897 94.6757 34.8151C94.6757 35.7813 95.2706 36.328 96.1565 36.328C96.9792 36.328 97.3589 35.8957 97.3589 35.3872C97.3589 35.0439 97.245 34.6752 96.5868 34.4083L95.4984 33.9506C93.5873 33.1496 92.9291 31.98 92.9291 30.6324C92.9291 28.5728 94.7264 26.8184 97.3462 26.8184C100.903 26.8184 101.624 29.0813 101.649 30.3908L98.6878 30.7341C98.6878 30.1366 98.5106 29.2975 97.3209 29.2975C96.6628 29.2975 96.1565 29.7043 96.1565 30.2764C96.1565 30.6705 96.4097 30.9629 96.7767 31.1028L98.1942 31.6749C100.105 32.4504 100.763 33.6836 100.763 35.0821C100.763 36.9382 99.1941 38.8834 96.2831 38.8834C92.4988 38.8834 91.8027 36.3153 91.8027 35.2473V35.1075L94.701 34.6117Z" fill="#F5C518"/>
</g>
<path d="M3.73025 13.4434C3.73025 13.4434 2.79782 10.6461 4.19647 9.24747C5.59511 7.84882 8.39241 8.31503 8.39241 8.31503C8.39241 8.31503 8.39241 5.51774 10.2573 4.5853C12.1221 3.65287 14.9194 5.0515 14.9194 5.0515C14.9194 5.0515 16.7843 1.92117 19.5816 2.72046C22.3789 3.51975 22.3789 6.91642 22.3789 6.91642C22.3789 6.91642 24.71 6.91646 26.1086 8.78125C27.5073 10.6461 26.1086 13.4434 26.1086 13.4434" stroke="white" stroke-width="2" stroke-linecap="round" stroke-linejoin="round"/>
<path d="M24.8923 35.6984L29.297 15.8772C29.5745 14.6282 28.6241 13.4434 27.3446 13.4434H2.49323C1.21374 13.4434 0.263294 14.6282 0.540854 15.8772L4.94553 35.6984C5.25668 37.0986 5.4123 37.7987 5.92365 38.2089C6.435 38.619 7.15213 38.619 8.58649 38.619H21.2513C22.6857 38.619 23.4028 38.619 23.9142 38.2089C24.4255 37.7987 24.5812 37.0986 24.8923 35.6984Z" fill="#F5C518"/>
<path d="M19 36.1504L20 16.1504" stroke="black" stroke-width="2" stroke-linecap="round" stroke-linejoin="round"/>
<path d="M11 36.0625L10 16.0625" stroke="black" stroke-width="2" stroke-linecap="round" stroke-linejoin="round"/>
<defs>
<clipPath id="clip0_1680_18154">
<rect width="86" height="35" fill="white" transform="translate(36 3.87305)"/>
</clipPath>
</defs>
</svg>
