<svg width="132" height="44" viewBox="0 0 132 44" fill="none" xmlns="http://www.w3.org/2000/svg">
<g clip-path="url(#clip0_1948_24554)">
<path d="M21.4475 13.7062C25.1921 13.7062 28.2347 10.6678 28.2347 6.93709C28.2347 3.20638 25.1882 0.164062 21.4475 0.164062C17.7067 0.164062 14.6562 3.20243 14.6562 6.93313C14.6562 10.6638 17.7028 13.7062 21.4475 13.7062ZM21.4475 2.93341C23.6609 2.93341 25.4579 4.72952 25.4579 6.93313C25.4579 9.13674 23.657 10.9329 21.4475 10.9329C19.2379 10.9329 17.437 9.13674 17.437 6.93313C17.437 4.72952 19.234 2.93341 21.4475 2.93341Z" fill="#40749C"/>
<path d="M8.11628 8.24537C9.21388 8.24537 10.1037 7.35797 10.1037 6.26331C10.1037 5.16865 9.21388 4.28125 8.11628 4.28125C7.01869 4.28125 6.12891 5.16865 6.12891 6.26331C6.12891 7.35797 7.01869 8.24537 8.11628 8.24537Z" fill="#799EB9"/>
<path d="M2.62019 17.2922C3.71779 17.2922 4.60757 16.4048 4.60757 15.3102C4.60757 14.2155 3.71779 13.3281 2.62019 13.3281C1.52259 13.3281 0.632812 14.2155 0.632812 15.3102C0.632812 16.4048 1.52259 17.2922 2.62019 17.2922Z" fill="#799EB9"/>
<path d="M34.0264 8.24537C35.1252 8.24537 36.0138 7.35918 36.0138 6.26331C36.0138 5.16744 35.1252 4.28125 34.0264 4.28125C32.9276 4.28125 32.0391 5.16744 32.0391 6.26331C32.043 7.35918 32.9316 8.24537 34.0264 8.24537Z" fill="#799EB9"/>
<path d="M39.5186 17.2844C40.6174 17.2844 41.506 16.3982 41.506 15.3024C41.506 14.2065 40.6174 13.3203 39.5186 13.3203C38.4198 13.3203 37.5312 14.2065 37.5312 15.3024C37.5312 16.3982 38.4198 17.2844 39.5186 17.2844Z" fill="#799EB9"/>
<path d="M39.9186 31.253C38.7881 30.5131 37.3601 30.0938 35.7892 30.0424C33.4012 29.9632 30.9298 30.4973 28.6846 31.5061V21.3783C33.663 25.6826 41.8346 25.742 42.2511 25.742V22.9726C42.144 22.9726 31.5764 22.9014 28.5378 16.793L25.9039 17.4062V33.0807C24.8963 33.7889 23.976 34.6039 23.1906 35.5138C23.024 35.7076 22.8613 35.9054 22.7066 36.1072C22.2346 36.7165 21.8101 37.3574 21.4412 38.022C21.0723 37.3574 20.6518 36.7165 20.1758 36.1072C20.0211 35.9054 19.8584 35.7076 19.6918 35.5138C18.9064 34.6039 17.9861 33.7889 16.9785 33.0807V17.4023L14.3445 16.7891C11.3337 22.8579 0.809741 22.9687 0.635201 22.9687V25.738C1.05172 25.738 9.22337 25.6787 14.2017 21.3743V31.5022C11.9565 30.4934 9.48518 29.9593 7.09716 30.0384C5.52629 30.0938 4.09824 30.5092 2.96769 31.249C0.595533 32.8038 -0.546912 35.8501 0.254386 38.4968C1.38493 42.2196 4.74086 43.1611 6.77188 43.1611C6.94642 43.1611 7.10906 43.1532 7.2598 43.1413H21.4174H21.469H35.6265C35.7773 43.1532 35.9439 43.1611 36.1145 43.1611C38.1455 43.1611 41.5014 42.2196 42.632 38.4968C43.4372 35.8501 42.2948 32.8038 39.9186 31.253ZM7.20029 40.376L7.07336 40.3799C6.74014 40.4076 3.78486 40.5698 2.91216 37.6976C2.46391 36.2219 3.14223 34.4496 4.48699 33.5673C5.19308 33.1045 6.12925 32.8433 7.19236 32.8077C7.32326 32.8038 7.45814 32.7998 7.58904 32.7998C11.306 32.7998 15.1934 34.5485 17.5894 37.3218C17.7243 37.4761 17.8552 37.6383 17.9821 37.8005C18.593 38.5878 19.1087 39.4581 19.5133 40.376H7.20029ZM39.9742 37.6976C39.1015 40.5698 36.1502 40.4076 35.8249 40.3799L23.377 40.372C23.7816 39.4542 24.2973 38.5838 24.9082 37.7965C25.0351 37.6343 25.166 37.4761 25.3009 37.3178C27.7802 34.4456 31.87 32.6693 35.6979 32.8038C36.7611 32.8394 37.6972 33.1045 38.4033 33.5634C39.7441 34.4456 40.4224 36.2219 39.9742 37.6976Z" fill="#40749C"/>
<path d="M59.6283 23.8238C58.3311 23.4242 57.2363 22.8585 56.3438 22.1305L57.5219 19.5629C58.4541 20.2711 59.4339 20.7933 60.4653 21.1177C61.4967 21.4461 62.6153 21.6083 63.8173 21.6083C65.1501 21.6083 66.1775 21.3749 66.8955 20.912C67.6175 20.4491 67.9784 19.7963 67.9784 18.9616C67.9784 18.2336 67.6452 17.6798 66.9788 17.296C66.3124 16.9123 65.2056 16.5483 63.6546 16.2041C62.048 15.8599 60.743 15.4603 59.7394 15.0014C58.7357 14.5465 57.9781 13.9649 57.4664 13.2528C56.9546 12.5446 56.7008 11.6426 56.7008 10.5507C56.7008 9.42318 57.0102 8.41039 57.633 7.52024C58.2518 6.6301 59.1285 5.9338 60.259 5.43137C61.3896 4.93288 62.6946 4.67969 64.1743 4.67969C65.523 4.67969 66.8122 4.88541 68.034 5.2929C69.2558 5.70434 70.2594 6.26217 71.0448 6.97033L69.8667 9.53791C68.153 8.17302 66.2529 7.49255 64.1743 7.49255C62.9326 7.49255 61.9528 7.74179 61.2309 8.24423C60.5089 8.74667 60.1479 9.44296 60.1479 10.3331C60.1479 11.0808 60.4653 11.6545 61.1079 12.0541C61.7505 12.4536 62.8335 12.8295 64.3647 13.1737C65.9871 13.5376 67.3081 13.9412 68.3196 14.3882C69.3311 14.8353 70.1086 15.401 70.6481 16.0933C71.1876 16.7857 71.4574 17.66 71.4574 18.7123C71.4574 19.8596 71.1519 20.8645 70.541 21.727C69.9301 22.5934 69.0455 23.2541 67.8872 23.7209C66.7289 24.1838 65.3643 24.4172 63.7935 24.4172C62.3138 24.4251 60.9254 24.2233 59.6283 23.8238Z" fill="black"/>
<path d="M79.5151 23.2301C78.1386 22.431 77.0755 21.2837 76.3257 19.7922C75.576 18.3007 75.2031 16.5521 75.2031 14.5502C75.2031 12.5484 75.572 10.8077 76.3099 9.32407C77.0477 7.8405 78.1108 6.70111 79.4992 5.898C80.8876 5.09885 82.5179 4.69531 84.3982 4.69531C86.2785 4.69531 87.9049 5.09489 89.2853 5.898C90.6618 6.70111 91.721 7.8405 92.4588 9.32407C93.1966 10.8077 93.5655 12.5484 93.5655 14.5502C93.5655 16.5521 93.1927 18.3007 92.4429 19.7922C91.6932 21.2837 90.6301 22.431 89.2536 23.2301C87.8771 24.0293 86.2547 24.4328 84.3943 24.4328C82.5219 24.4289 80.8915 24.0293 79.5151 23.2301ZM88.5475 19.7882C89.5432 18.5697 90.039 16.8211 90.039 14.5463C90.039 12.2714 89.5432 10.5307 88.5475 9.32012C87.5518 8.10952 86.1714 7.50422 84.4022 7.50422C82.6132 7.50422 81.2208 8.10952 80.2291 9.32012C79.2334 10.5307 78.7376 12.2714 78.7376 14.5463C78.7376 16.8211 79.2334 18.5697 80.2291 19.7882C81.2248 21.0067 82.6132 21.616 84.4022 21.616C86.1714 21.616 87.5518 21.0067 88.5475 19.7882Z" fill="black"/>
<path d="M100.168 22.3804C98.7995 21.0155 98.1172 19.0216 98.1172 16.4026V4.9375H101.564V16.5925C101.564 18.2501 101.957 19.5003 102.743 20.3469C103.528 21.1935 104.678 21.6169 106.19 21.6169C107.685 21.6169 108.828 21.1896 109.609 20.3351C110.395 19.4805 110.787 18.2343 110.787 16.5964V4.9375H114.234V16.4026C114.234 19.0058 113.548 20.9918 112.18 22.3685C110.811 23.7413 108.812 24.4297 106.186 24.4297C103.544 24.4258 101.537 23.7453 100.168 22.3804Z" fill="black"/>
<path d="M119.383 24.1805V4.9375H122.913V21.2885H131.918V24.1805H119.383Z" fill="black"/>
<path d="M62.21 30.9352C62.7415 31.2715 63.1541 31.7462 63.4476 32.3634C63.7411 32.9806 63.8879 33.6927 63.8879 34.5037C63.8879 35.3266 63.7411 36.0466 63.4476 36.6678C63.1541 37.2889 62.7415 37.7716 62.21 38.1197C61.6784 38.4678 61.0675 38.638 60.3733 38.638C59.7545 38.638 59.215 38.5034 58.7548 38.2305C58.2947 37.9614 57.9456 37.5777 57.7076 37.0792V38.5232H56.3906V27.0938H57.7076V31.9915C57.9456 31.4931 58.2947 31.1093 58.7548 30.8403C59.215 30.5713 59.7545 30.4328 60.3733 30.4328C61.0675 30.4328 61.6784 30.6029 62.21 30.9352ZM61.9005 36.7508C62.325 36.2168 62.5352 35.4651 62.5352 34.5037C62.5352 33.5621 62.325 32.8342 61.9005 32.312C61.4761 31.7937 60.8811 31.5326 60.1115 31.5326C59.3419 31.5326 58.7469 31.7937 58.3304 32.312C57.9139 32.8302 57.7036 33.5701 57.7036 34.5354C57.7036 35.5007 57.9139 36.2405 58.3304 36.7667C58.7469 37.2929 59.3419 37.554 60.1115 37.554C60.8811 37.554 61.4761 37.2889 61.9005 36.7508Z" fill="black"/>
<path d="M70.0897 38.1402C69.5185 37.804 69.0821 37.3253 68.7727 36.7041C68.4633 36.083 68.3086 35.359 68.3086 34.5401C68.3086 33.7211 68.4633 32.9972 68.7727 32.376C69.0821 31.7549 69.5224 31.2762 70.0897 30.9399C70.657 30.6037 71.3154 30.4375 72.0652 30.4375C72.8149 30.4375 73.4734 30.6037 74.0486 30.9399C74.6238 31.2762 75.0641 31.7549 75.3735 32.376C75.6829 32.9972 75.8376 33.7211 75.8376 34.5401C75.8376 35.359 75.6829 36.083 75.3735 36.7041C75.0641 37.3253 74.6238 37.804 74.0486 38.1402C73.4734 38.4765 72.8109 38.6427 72.0652 38.6427C71.3194 38.6427 70.6609 38.4765 70.0897 38.1402ZM73.8661 36.7872C74.2826 36.2729 74.4929 35.5252 74.4929 34.5401C74.4929 33.5787 74.2826 32.835 73.8582 32.3088C73.4337 31.7826 72.8387 31.5215 72.0691 31.5215C71.2996 31.5215 70.7046 31.7826 70.2801 32.3088C69.8557 32.835 69.6454 33.5787 69.6454 34.5401C69.6454 35.5133 69.8557 36.261 70.2722 36.7793C70.6887 37.2976 71.2877 37.5587 72.0691 37.5587C72.8466 37.5547 73.4456 37.2976 73.8661 36.7872Z" fill="black"/>
<path d="M82.0467 38.1402C81.4755 37.804 81.0392 37.3253 80.7297 36.7041C80.4203 36.083 80.2656 35.359 80.2656 34.5401C80.2656 33.7211 80.4203 32.9972 80.7297 32.376C81.0392 31.7549 81.4795 31.2762 82.0467 30.9399C82.614 30.6037 83.2725 30.4375 84.0222 30.4375C84.7719 30.4375 85.4304 30.6037 86.0056 30.9399C86.5808 31.2762 87.0211 31.7549 87.3305 32.376C87.6399 32.9972 87.7947 33.7211 87.7947 34.5401C87.7947 35.359 87.6399 36.083 87.3305 36.7041C87.0211 37.3253 86.5808 37.804 86.0056 38.1402C85.4304 38.4765 84.768 38.6427 84.0222 38.6427C83.2725 38.6427 82.614 38.4765 82.0467 38.1402ZM85.8192 36.7872C86.2357 36.2729 86.4459 35.5252 86.4459 34.5401C86.4459 33.5787 86.2357 32.835 85.8112 32.3088C85.3868 31.7826 84.7918 31.5215 84.0222 31.5215C83.2526 31.5215 82.6576 31.7826 82.2332 32.3088C81.8087 32.835 81.5985 33.5787 81.5985 34.5401C81.5985 35.5133 81.8087 36.261 82.2252 36.7793C82.6418 37.2976 83.2407 37.5587 84.0222 37.5587C84.8037 37.5547 85.4027 37.2976 85.8192 36.7872Z" fill="black"/>
<path d="M99.7484 38.5272H98.0427L94.0084 34.749V38.5272H92.6914V27.0938H94.0084V34.2149L97.7015 30.6464H99.3755L95.4404 34.4246L99.7484 38.5272Z" fill="black"/>
<path d="M103.75 38.5272V27.0938H105.067V38.5311H103.75V38.5272Z" fill="black"/>
<path d="M110.32 27.2031H111.915V28.6788H110.32V27.2031ZM110.447 38.5218V30.6252H111.764V38.5258H110.447V38.5218Z" fill="black"/>
<path d="M116.664 37.6221L117.104 36.6488C117.529 36.9851 117.957 37.2264 118.398 37.3689C118.838 37.5153 119.334 37.5865 119.885 37.5865C120.472 37.5865 120.916 37.4876 121.226 37.2858C121.535 37.088 121.69 36.7952 121.69 36.4194C121.69 36.1068 121.587 35.8576 121.381 35.6717C121.174 35.4897 120.833 35.3433 120.357 35.2325L119.024 34.9239C118.35 34.7736 117.838 34.5125 117.477 34.1446C117.12 33.7766 116.942 33.3217 116.942 32.7836C116.942 32.0794 117.219 31.5137 117.771 31.0785C118.322 30.6473 119.06 30.4297 119.984 30.4297C120.536 30.4297 121.063 30.5207 121.563 30.6987C122.063 30.8767 122.479 31.1339 122.817 31.4702L122.376 32.4276C121.65 31.8104 120.853 31.5018 119.984 31.5018C119.433 31.5018 119.001 31.6086 118.691 31.8183C118.382 32.028 118.227 32.3247 118.227 32.7006C118.227 33.0131 118.322 33.2663 118.513 33.4562C118.703 33.6461 119.008 33.7885 119.433 33.8874L120.782 34.2118C121.519 34.3859 122.067 34.647 122.424 34.9991C122.781 35.3512 122.959 35.8062 122.959 36.368C122.959 37.0603 122.682 37.6102 122.122 38.0216C121.563 38.4331 120.801 38.6388 119.838 38.6388C118.501 38.6428 117.442 38.3025 116.664 37.6221Z" fill="black"/>
<path d="M131.999 37.5355L131.935 38.572C131.686 38.6156 131.416 38.6353 131.122 38.6353C130.166 38.6353 129.448 38.3861 128.968 37.8876C128.484 37.3891 128.242 36.6968 128.242 35.8106V31.6566H126.699V30.628H128.242V28.2266H129.559V30.628H131.805V31.6645H129.559V35.7196C129.559 36.9619 130.134 37.583 131.285 37.583C131.523 37.5869 131.761 37.5672 131.999 37.5355Z" fill="black"/>
</g>
<defs>
<clipPath id="clip0_1948_24554">
<rect width="132" height="43" fill="white" transform="translate(0 0.5)"/>
</clipPath>
</defs>
</svg>
