<svg width="132" height="44" viewBox="0 0 132 44" fill="none" xmlns="http://www.w3.org/2000/svg">
<g clip-path="url(#clip0_1948_24525)">
<path d="M21.3848 14.2062C25.1186 14.2062 28.1524 11.1678 28.1524 7.43709C28.1524 3.70638 25.1147 0.664062 21.3848 0.664062C17.6549 0.664062 14.6133 3.70243 14.6133 7.43313C14.6133 11.1638 17.651 14.2062 21.3848 14.2062ZM21.3848 3.43341C23.5919 3.43341 25.3836 5.22952 25.3836 7.43313C25.3836 9.63674 23.5879 11.4329 21.3848 11.4329C19.1817 11.4329 17.386 9.63674 17.386 7.43313C17.386 5.22952 19.1777 3.43341 21.3848 3.43341Z" fill="#40749C"/>
<path d="M8.09099 8.74537C9.18541 8.74537 10.0726 7.85797 10.0726 6.76331C10.0726 5.66865 9.18541 4.78125 8.09099 4.78125C6.99658 4.78125 6.10938 5.66865 6.10938 6.76331C6.10938 7.85797 6.99658 8.74537 8.09099 8.74537Z" fill="#799EB9"/>
<path d="M2.61443 17.7922C3.70885 17.7922 4.59605 16.9048 4.59605 15.8102C4.59605 14.7155 3.70885 13.8281 2.61443 13.8281C1.52001 13.8281 0.632812 14.7155 0.632812 15.8102C0.632812 16.9048 1.52001 17.7922 2.61443 17.7922Z" fill="#799EB9"/>
<path d="M33.9269 8.74537C35.0226 8.74537 35.9085 7.85918 35.9085 6.76331C35.9085 5.66744 35.0226 4.78125 33.9269 4.78125C32.8313 4.78125 31.9453 5.66744 31.9453 6.76331C31.9493 7.85918 32.8353 8.74537 33.9269 8.74537Z" fill="#799EB9"/>
<path d="M39.4035 17.7844C40.4991 17.7844 41.3851 16.8982 41.3851 15.8024C41.3851 14.7065 40.4991 13.8203 39.4035 13.8203C38.3079 13.8203 37.4219 14.7065 37.4219 15.8024C37.4219 16.8982 38.3079 17.7844 39.4035 17.7844Z" fill="#799EB9"/>
<path d="M39.8029 31.753C38.6757 31.0131 37.2518 30.5938 35.6855 30.5423C33.3043 30.4632 30.8402 30.9973 28.6015 32.0061V21.8783C33.5654 26.1826 41.7134 26.242 42.1287 26.242V23.4726C42.0219 23.4726 31.4849 23.4014 28.4551 17.293L25.8288 17.9062V33.5807C24.8241 34.2889 23.9065 35.1039 23.1233 36.0138C22.9572 36.2076 22.795 36.4054 22.6408 36.6072C22.1701 37.2165 21.7469 37.8574 21.379 38.522C21.0112 37.8574 20.5919 37.2165 20.1173 36.6072C19.963 36.4054 19.8009 36.2076 19.6347 36.0138C18.8516 35.1039 17.934 34.2889 16.9293 33.5807V17.9023L14.303 17.2891C11.3009 23.3579 0.807394 23.4687 0.63336 23.4687V26.238C1.04867 26.238 9.19664 26.1787 14.1606 21.8743V32.0022C11.9219 30.9934 9.45769 30.4593 7.07658 30.5384C5.51028 30.5938 4.08636 31.0092 2.95909 31.749C0.593807 33.3038 -0.545327 36.3501 0.253649 38.9968C1.38092 42.7196 4.72712 43.6611 6.75225 43.6611C6.92628 43.6611 7.08845 43.6532 7.23875 43.6413H21.3553H21.4067H35.5233C35.6736 43.6532 35.8397 43.6611 36.0098 43.6611C38.0349 43.6611 41.3811 42.7196 42.5084 38.9968C43.3113 36.3501 42.1722 33.3038 39.8029 31.753ZM7.17942 40.876L7.05285 40.8799C6.72061 40.9076 3.77389 41.0698 2.90372 38.1976C2.45677 36.7219 3.13313 34.9496 4.47398 34.0673C5.17803 33.6045 6.11149 33.3433 7.17151 33.3077C7.30204 33.3038 7.43652 33.2998 7.56705 33.2998C11.2732 33.2998 15.1494 35.0485 17.5384 37.8218C17.6729 37.9761 17.8034 38.1383 17.93 38.3005C18.5391 39.0878 19.0533 39.9581 19.4568 40.876H7.17942ZM39.8583 38.1976C38.9881 41.0698 36.0454 40.9076 35.7211 40.8799L23.3092 40.872C23.7127 39.9542 24.2269 39.0838 24.836 38.2965C24.9626 38.1343 25.0931 37.9761 25.2276 37.8178C27.6997 34.9456 31.7776 33.1693 35.5945 33.3038C36.6545 33.3394 37.588 33.6045 38.292 34.0634C39.6289 34.9456 40.3053 36.7219 39.8583 38.1976Z" fill="#40749C"/>
<path d="M59.4586 24.3238C58.1652 23.9242 57.0735 23.3585 56.1836 22.6305L57.3583 20.0629C58.2878 20.7711 59.2648 21.2933 60.2932 21.6177C61.3216 21.9461 62.437 22.1083 63.6354 22.1083C64.9644 22.1083 65.9888 21.8749 66.7048 21.412C67.4246 20.9491 67.7846 20.2963 67.7846 19.4616C67.7846 18.7336 67.4523 18.1798 66.7878 17.796C66.1233 17.4123 65.0198 17.0483 63.4733 16.7041C61.8714 16.3599 60.5701 15.9603 59.5694 15.5014C58.5687 15.0465 57.8132 14.4649 57.303 13.7528C56.7927 13.0446 56.5396 12.1426 56.5396 11.0507C56.5396 9.92318 56.8481 8.91039 57.4691 8.02024C58.0861 7.1301 58.9602 6.4338 60.0875 5.93137C61.2148 5.43288 62.5161 5.17969 63.9914 5.17969C65.3362 5.17969 66.6217 5.38541 67.8399 5.7929C69.0582 6.20434 70.0589 6.76217 70.842 7.47033L69.6673 10.0379C67.9586 8.67302 66.064 7.99255 63.9914 7.99255C62.7534 7.99255 61.7764 8.24179 61.0566 8.74423C60.3367 9.24667 59.9768 9.94296 59.9768 10.8331C59.9768 11.5808 60.2932 12.1545 60.9339 12.5541C61.5747 12.9536 62.6545 13.3295 64.1813 13.6737C65.799 14.0376 67.1161 14.4412 68.1247 14.8882C69.1333 15.3353 69.9086 15.901 70.4465 16.5933C70.9844 17.2857 71.2534 18.16 71.2534 19.2123C71.2534 20.3596 70.9488 21.3645 70.3397 22.227C69.7306 23.0934 68.8485 23.7541 67.6936 24.2209C66.5386 24.6838 65.178 24.9172 63.6117 24.9172C62.1364 24.9251 60.752 24.7233 59.4586 24.3238Z" fill="black"/>
<path d="M79.2877 23.7301C77.9152 22.931 76.8552 21.7837 76.1076 20.2922C75.3601 18.8007 74.9883 17.0521 74.9883 15.0502C74.9883 13.0484 75.3561 11.3077 76.0918 9.82407C76.8275 8.3405 77.8875 7.20111 79.2719 6.398C80.6563 5.59885 82.2819 5.19531 84.1567 5.19531C86.0315 5.19531 87.6532 5.59489 89.0297 6.398C90.4022 7.20111 91.4583 8.3405 92.1939 9.82407C92.9296 11.3077 93.2975 13.0484 93.2975 15.0502C93.2975 17.0521 92.9257 18.8007 92.1781 20.2922C91.4306 21.7837 90.3705 22.931 88.998 23.7301C87.6255 24.5293 86.0078 24.9328 84.1528 24.9328C82.2859 24.9289 80.6602 24.5293 79.2877 23.7301ZM88.294 20.2882C89.2868 19.0697 89.7812 17.3211 89.7812 15.0463C89.7812 12.7714 89.2868 11.0307 88.294 9.82012C87.3012 8.60952 85.9248 8.00422 84.1607 8.00422C82.3768 8.00422 80.9885 8.60952 79.9997 9.82012C79.0069 11.0307 78.5125 12.7714 78.5125 15.0463C78.5125 17.3211 79.0069 19.0697 79.9997 20.2882C80.9925 21.5067 82.3768 22.116 84.1607 22.116C85.9248 22.116 87.3012 21.5067 88.294 20.2882Z" fill="black"/>
<path d="M99.8808 22.8804C98.5163 21.5155 97.8359 19.5216 97.8359 16.9026V5.4375H101.273V17.0925C101.273 18.7501 101.665 20.0003 102.448 20.8469C103.231 21.6935 104.378 22.1169 105.885 22.1169C107.376 22.1169 108.515 21.6896 109.295 20.8351C110.078 19.9805 110.469 18.7343 110.469 17.0964V5.4375H113.906V16.9026C113.906 19.5058 113.222 21.4918 111.858 22.8685C110.493 24.2413 108.499 24.9297 105.881 24.9297C103.247 24.9258 101.245 24.2453 99.8808 22.8804Z" fill="black"/>
<path d="M119.039 24.6805V5.4375H122.559V21.7885H131.538V24.6805H119.039Z" fill="black"/>
<path d="M62.0329 31.4352C62.5629 31.7715 62.9743 32.2462 63.267 32.8634C63.5597 33.4806 63.706 34.1927 63.706 35.0037C63.706 35.8266 63.5597 36.5466 63.267 37.1678C62.9743 37.7889 62.5629 38.2716 62.0329 38.6197C61.5029 38.9678 60.8938 39.138 60.2016 39.138C59.5846 39.138 59.0467 39.0034 58.5878 38.7305C58.129 38.4614 57.781 38.0777 57.5436 37.5792V39.0232H56.2305V27.5938H57.5436V32.4915C57.781 31.9931 58.129 31.6093 58.5878 31.3403C59.0467 31.0713 59.5846 30.9328 60.2016 30.9328C60.8938 30.9328 61.5029 31.1029 62.0329 31.4352ZM61.7244 37.2508C62.1476 36.7168 62.3573 35.9651 62.3573 35.0037C62.3573 34.0621 62.1476 33.3342 61.7244 32.812C61.3012 32.2937 60.7079 32.0326 59.9406 32.0326C59.1732 32.0326 58.5799 32.2937 58.1646 32.812C57.7493 33.3302 57.5397 34.0701 57.5397 35.0354C57.5397 36.0007 57.7493 36.7405 58.1646 37.2667C58.5799 37.7928 59.1732 38.054 59.9406 38.054C60.7079 38.054 61.3012 37.7889 61.7244 37.2508Z" fill="black"/>
<path d="M69.8892 38.6402C69.3197 38.304 68.8846 37.8253 68.5761 37.2041C68.2675 36.583 68.1133 35.859 68.1133 35.0401C68.1133 34.2211 68.2675 33.4972 68.5761 32.876C68.8846 32.2549 69.3236 31.7762 69.8892 31.4399C70.4548 31.1037 71.1114 30.9375 71.859 30.9375C72.6065 30.9375 73.2631 31.1037 73.8366 31.4399C74.4102 31.7762 74.8492 32.2549 75.1577 32.876C75.4662 33.4972 75.6205 34.2211 75.6205 35.0401C75.6205 35.859 75.4662 36.583 75.1577 37.2041C74.8492 37.8253 74.4102 38.304 73.8366 38.6402C73.2631 38.9765 72.6026 39.1427 71.859 39.1427C71.1154 39.1427 70.4588 38.9765 69.8892 38.6402ZM73.6547 37.2872C74.07 36.7729 74.2796 36.0252 74.2796 35.0401C74.2796 34.0787 74.07 33.335 73.6468 32.8088C73.2236 32.2826 72.6303 32.0215 71.8629 32.0215C71.0956 32.0215 70.5023 32.2826 70.0791 32.8088C69.6559 33.335 69.4462 34.0787 69.4462 35.0401C69.4462 36.0133 69.6559 36.761 70.0712 37.2793C70.4865 37.7976 71.0837 38.0587 71.8629 38.0587C72.6382 38.0547 73.2354 37.7976 73.6547 37.2872Z" fill="black"/>
<path d="M81.8111 38.6402C81.2415 38.304 80.8064 37.8253 80.4979 37.2041C80.1894 36.583 80.0352 35.859 80.0352 35.0401C80.0352 34.2211 80.1894 33.4972 80.4979 32.876C80.8064 32.2549 81.2455 31.7762 81.8111 31.4399C82.3767 31.1037 83.0333 30.9375 83.7808 30.9375C84.5284 30.9375 85.185 31.1037 85.7585 31.4399C86.332 31.7762 86.7711 32.2549 87.0796 32.876C87.3881 33.4972 87.5424 34.2211 87.5424 35.0401C87.5424 35.859 87.3881 36.583 87.0796 37.2041C86.7711 37.8253 86.332 38.304 85.7585 38.6402C85.185 38.9765 84.5245 39.1427 83.7808 39.1427C83.0333 39.1427 82.3767 38.9765 81.8111 38.6402ZM85.5726 37.2872C85.9879 36.7729 86.1976 36.0252 86.1976 35.0401C86.1976 34.0787 85.9879 33.335 85.5647 32.8088C85.1415 32.2826 84.5482 32.0215 83.7808 32.0215C83.0135 32.0215 82.4202 32.2826 81.997 32.8088C81.5738 33.335 81.3641 34.0787 81.3641 35.0401C81.3641 36.0133 81.5738 36.761 81.9891 37.2793C82.4044 37.7976 83.0017 38.0587 83.7808 38.0587C84.56 38.0547 85.1573 37.7976 85.5726 37.2872Z" fill="black"/>
<path d="M99.4623 39.0272H97.7615L93.739 35.249V39.0272H92.4258V27.5938H93.739V34.7149L97.4214 31.1464H99.0905L95.1668 34.9246L99.4623 39.0272Z" fill="black"/>
<path d="M103.449 39.0272V27.5938H104.762V39.0311H103.449V39.0272Z" fill="black"/>
<path d="M110.004 27.7031H111.594V29.1788H110.004V27.7031ZM110.13 39.0218V31.1252H111.444V39.0258H110.13V39.0218Z" fill="black"/>
<path d="M116.328 38.1221L116.767 37.1488C117.19 37.4851 117.618 37.7264 118.057 37.8689C118.496 38.0153 118.99 38.0865 119.54 38.0865C120.125 38.0865 120.568 37.9876 120.877 37.7858C121.185 37.588 121.34 37.2952 121.34 36.9194C121.34 36.6068 121.237 36.3576 121.031 36.1717C120.825 35.9897 120.485 35.8433 120.011 35.7325L118.682 35.4239C118.009 35.2736 117.499 35.0125 117.139 34.6446C116.783 34.2766 116.605 33.8217 116.605 33.2836C116.605 32.5794 116.882 32.0137 117.432 31.5785C117.981 31.1473 118.717 30.9297 119.639 30.9297C120.189 30.9297 120.715 31.0207 121.213 31.1987C121.711 31.3767 122.127 31.6339 122.463 31.9702L122.024 32.9276C121.3 32.3104 120.505 32.0018 119.639 32.0018C119.089 32.0018 118.658 32.1086 118.349 32.3183C118.041 32.528 117.887 32.8247 117.887 33.2006C117.887 33.5131 117.981 33.7663 118.171 33.9562C118.361 34.1461 118.666 34.2885 119.089 34.3874L120.434 34.7118C121.169 34.8859 121.715 35.147 122.071 35.4991C122.427 35.8512 122.605 36.3062 122.605 36.868C122.605 37.5603 122.328 38.1102 121.771 38.5216C121.213 38.9331 120.454 39.1388 119.492 39.1388C118.159 39.1428 117.103 38.8025 116.328 38.1221Z" fill="black"/>
<path d="M131.62 38.0355L131.557 39.072C131.308 39.1156 131.039 39.1353 130.746 39.1353C129.793 39.1353 129.077 38.8861 128.598 38.3876C128.116 37.8891 127.875 37.1968 127.875 36.3106V32.1566H126.336V31.128H127.875V28.7266H129.188V31.128H131.426V32.1645H129.188V36.2196C129.188 37.4619 129.761 38.083 130.908 38.083C131.146 38.0869 131.383 38.0672 131.62 38.0355Z" fill="black"/>
</g>
<defs>
<clipPath id="clip0_1948_24525">
<rect width="132" height="44" fill="white"/>
</clipPath>
</defs>
</svg>
