<svg width="132" height="43" viewBox="0 0 132 43" fill="none" xmlns="http://www.w3.org/2000/svg">
<g clip-path="url(#clip0_1940_39951)">
<path d="M21.4475 13.2062C25.1921 13.2062 28.2347 10.1678 28.2347 6.43709C28.2347 2.70638 25.1882 -0.335938 21.4475 -0.335938C17.7067 -0.335938 14.6562 2.70243 14.6562 6.43313C14.6562 10.1638 17.7028 13.2062 21.4475 13.2062ZM21.4475 2.43341C23.6609 2.43341 25.4579 4.22952 25.4579 6.43313C25.4579 8.63674 23.657 10.4329 21.4475 10.4329C19.2379 10.4329 17.437 8.63674 17.437 6.43313C17.437 4.22952 19.234 2.43341 21.4475 2.43341Z" fill="white"/>
<path d="M8.11628 7.74537C9.21388 7.74537 10.1037 6.85797 10.1037 5.76331C10.1037 4.66865 9.21388 3.78125 8.11628 3.78125C7.01869 3.78125 6.12891 4.66865 6.12891 5.76331C6.12891 6.85797 7.01869 7.74537 8.11628 7.74537Z" fill="white"/>
<path d="M2.62019 16.7922C3.71779 16.7922 4.60757 15.9048 4.60757 14.8102C4.60757 13.7155 3.71779 12.8281 2.62019 12.8281C1.52259 12.8281 0.632812 13.7155 0.632812 14.8102C0.632812 15.9048 1.52259 16.7922 2.62019 16.7922Z" fill="white"/>
<path d="M34.0264 7.74537C35.1252 7.74537 36.0138 6.85918 36.0138 5.76331C36.0138 4.66744 35.1252 3.78125 34.0264 3.78125C32.9276 3.78125 32.0391 4.66744 32.0391 5.76331C32.043 6.85918 32.9316 7.74537 34.0264 7.74537Z" fill="white"/>
<path d="M39.5186 16.7844C40.6174 16.7844 41.506 15.8982 41.506 14.8024C41.506 13.7065 40.6174 12.8203 39.5186 12.8203C38.4198 12.8203 37.5312 13.7065 37.5312 14.8024C37.5312 15.8982 38.4198 16.7844 39.5186 16.7844Z" fill="white"/>
<path d="M39.9186 30.753C38.7881 30.0131 37.3601 29.5938 35.7892 29.5423C33.4012 29.4632 30.9298 29.9973 28.6846 31.0061V20.8783C33.663 25.1826 41.8346 25.242 42.2511 25.242V22.4726C42.144 22.4726 31.5764 22.4014 28.5378 16.293L25.9039 16.9062V32.5807C24.8963 33.2889 23.976 34.1039 23.1906 35.0138C23.024 35.2076 22.8613 35.4054 22.7066 35.6072C22.2346 36.2165 21.8101 36.8574 21.4412 37.522C21.0723 36.8574 20.6518 36.2165 20.1758 35.6072C20.0211 35.4054 19.8584 35.2076 19.6918 35.0138C18.9064 34.1039 17.9861 33.2889 16.9785 32.5807V16.9023L14.3445 16.2891C11.3337 22.3579 0.809741 22.4687 0.635201 22.4687V25.238C1.05172 25.238 9.22337 25.1787 14.2017 20.8743V31.0022C11.9565 29.9934 9.48518 29.4593 7.09716 29.5384C5.52629 29.5938 4.09824 30.0092 2.96769 30.749C0.595533 32.3038 -0.546912 35.3501 0.254386 37.9968C1.38493 41.7196 4.74086 42.6611 6.77188 42.6611C6.94642 42.6611 7.10906 42.6532 7.2598 42.6413H21.4174H21.469H35.6265C35.7773 42.6532 35.9439 42.6611 36.1145 42.6611C38.1455 42.6611 41.5014 41.7196 42.632 37.9968C43.4372 35.3501 42.2948 32.3038 39.9186 30.753ZM7.20029 39.876L7.07336 39.8799C6.74014 39.9076 3.78486 40.0698 2.91216 37.1976C2.46391 35.7219 3.14223 33.9496 4.48699 33.0673C5.19308 32.6045 6.12925 32.3433 7.19236 32.3077C7.32326 32.3038 7.45814 32.2998 7.58904 32.2998C11.306 32.2998 15.1934 34.0485 17.5894 36.8218C17.7243 36.9761 17.8552 37.1383 17.9821 37.3005C18.593 38.0878 19.1087 38.9581 19.5133 39.876H7.20029ZM39.9742 37.1976C39.1015 40.0698 36.1502 39.9076 35.8249 39.8799L23.377 39.872C23.7816 38.9542 24.2973 38.0838 24.9082 37.2965C25.0351 37.1343 25.166 36.9761 25.3009 36.8178C27.7802 33.9456 31.87 32.1693 35.6979 32.3038C36.7611 32.3394 37.6972 32.6045 38.4033 33.0634C39.7441 33.9456 40.4224 35.7219 39.9742 37.1976Z" fill="white"/>
<path d="M59.6283 23.3238C58.3311 22.9242 57.2363 22.3585 56.3438 21.6305L57.5219 19.0629C58.4541 19.7711 59.4339 20.2933 60.4653 20.6177C61.4967 20.9461 62.6153 21.1083 63.8172 21.1083C65.1501 21.1083 66.1775 20.8749 66.8955 20.412C67.6175 19.9491 67.9784 19.2963 67.9784 18.4616C67.9784 17.7336 67.6452 17.1798 66.9788 16.796C66.3124 16.4123 65.2056 16.0483 63.6546 15.7041C62.048 15.3599 60.743 14.9603 59.7394 14.5014C58.7357 14.0465 57.9781 13.4649 57.4664 12.7528C56.9546 12.0446 56.7008 11.1426 56.7008 10.0507C56.7008 8.92318 57.0102 7.91039 57.633 7.02024C58.2518 6.1301 59.1285 5.4338 60.259 4.93137C61.3896 4.43288 62.6946 4.17969 64.1743 4.17969C65.523 4.17969 66.8122 4.38541 68.034 4.7929C69.2558 5.20434 70.2594 5.76217 71.0448 6.47033L69.8667 9.03791C68.153 7.67302 66.2529 6.99255 64.1743 6.99255C62.9326 6.99255 61.9528 7.24179 61.2309 7.74423C60.5089 8.24667 60.1479 8.94296 60.1479 9.83311C60.1479 10.5808 60.4653 11.1545 61.1079 11.5541C61.7505 11.9536 62.8335 12.3295 64.3647 12.6737C65.9871 13.0376 67.308 13.4412 68.3196 13.8882C69.3311 14.3353 70.1086 14.901 70.6481 15.5933C71.1876 16.2857 71.4573 17.16 71.4573 18.2123C71.4573 19.3596 71.1519 20.3645 70.541 21.227C69.9301 22.0934 69.0455 22.7541 67.8872 23.2209C66.7289 23.6838 65.3643 23.9172 63.7934 23.9172C62.3138 23.9251 60.9254 23.7233 59.6283 23.3238Z" fill="white"/>
<path d="M79.5151 22.7301C78.1386 21.931 77.0755 20.7837 76.3257 19.2922C75.576 17.8007 75.2031 16.0521 75.2031 14.0502C75.2031 12.0484 75.572 10.3077 76.3099 8.82407C77.0477 7.3405 78.1108 6.20111 79.4992 5.398C80.8876 4.59885 82.5179 4.19531 84.3982 4.19531C86.2785 4.19531 87.9049 4.59489 89.2853 5.398C90.6618 6.20111 91.721 7.3405 92.4588 8.82407C93.1966 10.3077 93.5655 12.0484 93.5655 14.0502C93.5655 16.0521 93.1927 17.8007 92.4429 19.2922C91.6932 20.7837 90.6301 21.931 89.2536 22.7301C87.8771 23.5293 86.2547 23.9328 84.3943 23.9328C82.5219 23.9289 80.8915 23.5293 79.5151 22.7301ZM88.5475 19.2882C89.5432 18.0697 90.039 16.3211 90.039 14.0463C90.039 11.7714 89.5432 10.0307 88.5475 8.82012C87.5518 7.60952 86.1714 7.00422 84.4022 7.00422C82.6132 7.00422 81.2208 7.60952 80.2291 8.82012C79.2334 10.0307 78.7376 11.7714 78.7376 14.0463C78.7376 16.3211 79.2334 18.0697 80.2291 19.2882C81.2248 20.5067 82.6132 21.116 84.4022 21.116C86.1714 21.116 87.5518 20.5067 88.5475 19.2882Z" fill="white"/>
<path d="M100.168 21.8804C98.7995 20.5155 98.1172 18.5216 98.1172 15.9026V4.4375H101.564V16.0925C101.564 17.7501 101.957 19.0003 102.743 19.8469C103.528 20.6935 104.678 21.1169 106.19 21.1169C107.685 21.1169 108.828 20.6896 109.609 19.8351C110.395 18.9805 110.787 17.7343 110.787 16.0964V4.4375H114.234V15.9026C114.234 18.5058 113.548 20.4918 112.18 21.8685C110.811 23.2413 108.812 23.9297 106.186 23.9297C103.544 23.9258 101.537 23.2453 100.168 21.8804Z" fill="white"/>
<path d="M119.383 23.6805V4.4375H122.913V20.7885H131.918V23.6805H119.383Z" fill="white"/>
<path d="M62.21 30.4352C62.7415 30.7715 63.1541 31.2462 63.4476 31.8634C63.7411 32.4806 63.8879 33.1927 63.8879 34.0037C63.8879 34.8266 63.7411 35.5466 63.4476 36.1678C63.1541 36.7889 62.7415 37.2716 62.21 37.6197C61.6784 37.9678 61.0675 38.138 60.3733 38.138C59.7545 38.138 59.215 38.0034 58.7548 37.7305C58.2947 37.4614 57.9456 37.0777 57.7076 36.5792V38.0232H56.3906V26.5938H57.7076V31.4915C57.9456 30.9931 58.2947 30.6093 58.7548 30.3403C59.215 30.0713 59.7545 29.9328 60.3733 29.9328C61.0675 29.9328 61.6784 30.1029 62.21 30.4352ZM61.9005 36.2508C62.325 35.7168 62.5352 34.9651 62.5352 34.0037C62.5352 33.0621 62.325 32.3342 61.9005 31.812C61.4761 31.2937 60.8811 31.0326 60.1115 31.0326C59.3419 31.0326 58.7469 31.2937 58.3304 31.812C57.9139 32.3302 57.7036 33.0701 57.7036 34.0354C57.7036 35.0007 57.9139 35.7405 58.3304 36.2667C58.7469 36.7928 59.3419 37.054 60.1115 37.054C60.8811 37.054 61.4761 36.7889 61.9005 36.2508Z" fill="white"/>
<path d="M70.0897 37.6402C69.5185 37.304 69.0821 36.8253 68.7727 36.2041C68.4633 35.583 68.3086 34.859 68.3086 34.0401C68.3086 33.2211 68.4633 32.4972 68.7727 31.876C69.0821 31.2549 69.5224 30.7762 70.0897 30.4399C70.657 30.1037 71.3154 29.9375 72.0652 29.9375C72.8149 29.9375 73.4734 30.1037 74.0486 30.4399C74.6238 30.7762 75.0641 31.2549 75.3735 31.876C75.6829 32.4972 75.8376 33.2211 75.8376 34.0401C75.8376 34.859 75.6829 35.583 75.3735 36.2041C75.0641 36.8253 74.6238 37.304 74.0486 37.6402C73.4734 37.9765 72.8109 38.1427 72.0652 38.1427C71.3194 38.1427 70.6609 37.9765 70.0897 37.6402ZM73.8661 36.2872C74.2826 35.7729 74.4929 35.0252 74.4929 34.0401C74.4929 33.0787 74.2826 32.335 73.8582 31.8088C73.4337 31.2826 72.8387 31.0215 72.0691 31.0215C71.2996 31.0215 70.7046 31.2826 70.2801 31.8088C69.8557 32.335 69.6454 33.0787 69.6454 34.0401C69.6454 35.0133 69.8557 35.761 70.2722 36.2793C70.6887 36.7976 71.2877 37.0587 72.0691 37.0587C72.8466 37.0547 73.4456 36.7976 73.8661 36.2872Z" fill="white"/>
<path d="M82.0467 37.6402C81.4755 37.304 81.0392 36.8253 80.7297 36.2041C80.4203 35.583 80.2656 34.859 80.2656 34.0401C80.2656 33.2211 80.4203 32.4972 80.7297 31.876C81.0392 31.2549 81.4795 30.7762 82.0467 30.4399C82.614 30.1037 83.2725 29.9375 84.0222 29.9375C84.7719 29.9375 85.4304 30.1037 86.0056 30.4399C86.5808 30.7762 87.0211 31.2549 87.3305 31.876C87.6399 32.4972 87.7947 33.2211 87.7947 34.0401C87.7947 34.859 87.6399 35.583 87.3305 36.2041C87.0211 36.8253 86.5808 37.304 86.0056 37.6402C85.4304 37.9765 84.768 38.1427 84.0222 38.1427C83.2725 38.1427 82.614 37.9765 82.0467 37.6402ZM85.8192 36.2872C86.2357 35.7729 86.4459 35.0252 86.4459 34.0401C86.4459 33.0787 86.2357 32.335 85.8112 31.8088C85.3868 31.2826 84.7918 31.0215 84.0222 31.0215C83.2526 31.0215 82.6576 31.2826 82.2332 31.8088C81.8087 32.335 81.5985 33.0787 81.5985 34.0401C81.5985 35.0133 81.8087 35.761 82.2252 36.2793C82.6418 36.7976 83.2407 37.0587 84.0222 37.0587C84.8037 37.0547 85.4027 36.7976 85.8192 36.2872Z" fill="white"/>
<path d="M99.7484 38.0272H98.0427L94.0084 34.249V38.0272H92.6914V26.5938H94.0084V33.7149L97.7015 30.1464H99.3755L95.4404 33.9246L99.7484 38.0272Z" fill="white"/>
<path d="M103.75 38.0272V26.5938H105.067V38.0311H103.75V38.0272Z" fill="white"/>
<path d="M110.32 26.7031H111.915V28.1788H110.32V26.7031ZM110.447 38.0218V30.1252H111.764V38.0258H110.447V38.0218Z" fill="white"/>
<path d="M116.664 37.1221L117.104 36.1488C117.529 36.4851 117.957 36.7264 118.398 36.8689C118.838 37.0153 119.334 37.0865 119.885 37.0865C120.472 37.0865 120.916 36.9876 121.226 36.7858C121.535 36.588 121.69 36.2952 121.69 35.9194C121.69 35.6068 121.587 35.3576 121.381 35.1717C121.174 34.9897 120.833 34.8433 120.357 34.7325L119.024 34.4239C118.35 34.2736 117.838 34.0125 117.477 33.6446C117.12 33.2766 116.942 32.8217 116.942 32.2836C116.942 31.5794 117.219 31.0137 117.771 30.5785C118.322 30.1473 119.06 29.9297 119.984 29.9297C120.536 29.9297 121.063 30.0207 121.563 30.1987C122.063 30.3767 122.479 30.6339 122.817 30.9702L122.376 31.9276C121.65 31.3104 120.853 31.0018 119.984 31.0018C119.433 31.0018 119.001 31.1086 118.691 31.3183C118.382 31.528 118.227 31.8247 118.227 32.2006C118.227 32.5131 118.322 32.7663 118.513 32.9562C118.703 33.1461 119.008 33.2885 119.433 33.3874L120.782 33.7118C121.519 33.8859 122.067 34.147 122.424 34.4991C122.781 34.8512 122.959 35.3062 122.959 35.868C122.959 36.5603 122.682 37.1102 122.122 37.5216C121.563 37.9331 120.801 38.1388 119.838 38.1388C118.501 38.1428 117.442 37.8025 116.664 37.1221Z" fill="white"/>
<path d="M131.999 37.0355L131.935 38.072C131.686 38.1156 131.416 38.1353 131.122 38.1353C130.166 38.1353 129.448 37.8861 128.968 37.3876C128.484 36.8891 128.242 36.1968 128.242 35.3106V31.1566H126.699V30.128H128.242V27.7266H129.559V30.128H131.805V31.1645H129.559V35.2196C129.559 36.4619 130.134 37.083 131.285 37.083C131.523 37.0869 131.761 37.0672 131.999 37.0355Z" fill="white"/>
</g>
<defs>
<clipPath id="clip0_1940_39951">
<rect width="132" height="43" fill="white"/>
</clipPath>
</defs>
</svg>
