<svg width="135" height="44" viewBox="0 0 135 44" fill="none" xmlns="http://www.w3.org/2000/svg">
<path d="M23.3848 14.2062C27.1186 14.2062 30.1524 11.1678 30.1524 7.43709C30.1524 3.70638 27.1147 0.664062 23.3848 0.664062C19.6549 0.664062 16.6133 3.70243 16.6133 7.43313C16.6133 11.1638 19.651 14.2062 23.3848 14.2062ZM23.3848 3.43341C25.5919 3.43341 27.3836 5.22952 27.3836 7.43313C27.3836 9.63674 25.5879 11.4329 23.3848 11.4329C21.1817 11.4329 19.386 9.63674 19.386 7.43313C19.386 5.22952 21.1777 3.43341 23.3848 3.43341Z" fill="white"/>
<path d="M10.091 8.74537C11.1854 8.74537 12.0726 7.85797 12.0726 6.76331C12.0726 5.66865 11.1854 4.78125 10.091 4.78125C8.99658 4.78125 8.10938 5.66865 8.10938 6.76331C8.10938 7.85797 8.99658 8.74537 10.091 8.74537Z" fill="white"/>
<path d="M4.61443 17.7922C5.70885 17.7922 6.59605 16.9048 6.59605 15.8102C6.59605 14.7155 5.70885 13.8281 4.61443 13.8281C3.52001 13.8281 2.63281 14.7155 2.63281 15.8102C2.63281 16.9048 3.52001 17.7922 4.61443 17.7922Z" fill="white"/>
<path d="M35.9269 8.74537C37.0226 8.74537 37.9085 7.85918 37.9085 6.76331C37.9085 5.66744 37.0226 4.78125 35.9269 4.78125C34.8313 4.78125 33.9453 5.66744 33.9453 6.76331C33.9493 7.85918 34.8353 8.74537 35.9269 8.74537Z" fill="white"/>
<path d="M41.4035 17.7844C42.4991 17.7844 43.3851 16.8982 43.3851 15.8024C43.3851 14.7065 42.4991 13.8203 41.4035 13.8203C40.3079 13.8203 39.4219 14.7065 39.4219 15.8024C39.4219 16.8982 40.3079 17.7844 41.4035 17.7844Z" fill="white"/>
<path d="M41.8029 31.753C40.6757 31.0131 39.2518 30.5938 37.6855 30.5423C35.3043 30.4632 32.8402 30.9973 30.6015 32.0061V21.8783C35.5654 26.1826 43.7134 26.242 44.1287 26.242V23.4726C44.0219 23.4726 33.4849 23.4014 30.4551 17.293L27.8288 17.9062V33.5807C26.8241 34.2889 25.9065 35.1039 25.1233 36.0138C24.9572 36.2076 24.795 36.4054 24.6408 36.6072C24.1701 37.2165 23.7469 37.8574 23.379 38.522C23.0112 37.8574 22.5919 37.2165 22.1173 36.6072C21.963 36.4054 21.8009 36.2076 21.6347 36.0138C20.8516 35.1039 19.934 34.2889 18.9293 33.5807V17.9023L16.303 17.2891C13.3009 23.3579 2.80739 23.4687 2.63336 23.4687V26.238C3.04867 26.238 11.1966 26.1787 16.1606 21.8743V32.0022C13.9219 30.9934 11.4577 30.4593 9.07658 30.5384C7.51028 30.5938 6.08636 31.0092 4.95909 31.749C2.59381 33.3038 1.45467 36.3501 2.25365 38.9968C3.38092 42.7196 6.72712 43.6611 8.75225 43.6611C8.92628 43.6611 9.08845 43.6532 9.23875 43.6413H23.3553H23.4067H37.5233C37.6736 43.6532 37.8397 43.6611 38.0098 43.6611C40.0349 43.6611 43.3811 42.7196 44.5084 38.9968C45.3113 36.3501 44.1722 33.3038 41.8029 31.753ZM9.17942 40.876L9.05285 40.8799C8.72061 40.9076 5.77389 41.0698 4.90372 38.1976C4.45677 36.7219 5.13313 34.9496 6.47398 34.0673C7.17803 33.6045 8.11149 33.3433 9.17151 33.3077C9.30204 33.3038 9.43652 33.2998 9.56705 33.2998C13.2732 33.2998 17.1494 35.0485 19.5384 37.8218C19.6729 37.9761 19.8034 38.1383 19.93 38.3005C20.5391 39.0878 21.0533 39.9581 21.4568 40.876H9.17942ZM41.8583 38.1976C40.9881 41.0698 38.0454 40.9076 37.7211 40.8799L25.3092 40.872C25.7127 39.9542 26.2269 39.0838 26.836 38.2965C26.9626 38.1343 27.0931 37.9761 27.2276 37.8178C29.6997 34.9456 33.7776 33.1693 37.5945 33.3038C38.6545 33.3394 39.588 33.6045 40.292 34.0634C41.6289 34.9456 42.3053 36.7219 41.8583 38.1976Z" fill="white"/>
<path d="M61.4586 24.3238C60.1652 23.9242 59.0735 23.3585 58.1836 22.6305L59.3583 20.0629C60.2878 20.7711 61.2648 21.2933 62.2932 21.6177C63.3216 21.9461 64.437 22.1083 65.6354 22.1083C66.9644 22.1083 67.9888 21.8749 68.7048 21.412C69.4246 20.9491 69.7846 20.2963 69.7846 19.4616C69.7846 18.7336 69.4523 18.1798 68.7878 17.796C68.1233 17.4123 67.0198 17.0483 65.4733 16.7041C63.8714 16.3599 62.5701 15.9603 61.5694 15.5014C60.5687 15.0465 59.8132 14.4649 59.303 13.7528C58.7927 13.0446 58.5396 12.1426 58.5396 11.0507C58.5396 9.92318 58.8481 8.91039 59.4691 8.02024C60.0861 7.1301 60.9602 6.4338 62.0875 5.93137C63.2148 5.43288 64.5161 5.17969 65.9914 5.17969C67.3362 5.17969 68.6217 5.38541 69.8399 5.7929C71.0582 6.20434 72.0589 6.76217 72.842 7.47033L71.6673 10.0379C69.9586 8.67302 68.064 7.99255 65.9914 7.99255C64.7534 7.99255 63.7764 8.24179 63.0566 8.74423C62.3367 9.24667 61.9768 9.94296 61.9768 10.8331C61.9768 11.5808 62.2932 12.1545 62.9339 12.5541C63.5747 12.9536 64.6545 13.3295 66.1813 13.6737C67.799 14.0376 69.1161 14.4412 70.1247 14.8882C71.1333 15.3353 71.9086 15.901 72.4465 16.5933C72.9844 17.2857 73.2534 18.16 73.2534 19.2123C73.2534 20.3596 72.9488 21.3645 72.3397 22.227C71.7306 23.0934 70.8485 23.7541 69.6936 24.2209C68.5386 24.6838 67.178 24.9172 65.6117 24.9172C64.1364 24.9251 62.752 24.7233 61.4586 24.3238Z" fill="white"/>
<path d="M81.2877 23.7301C79.9152 22.931 78.8552 21.7837 78.1076 20.2922C77.3601 18.8007 76.9883 17.0521 76.9883 15.0502C76.9883 13.0484 77.3561 11.3077 78.0918 9.82407C78.8275 8.3405 79.8875 7.20111 81.2719 6.398C82.6563 5.59885 84.2819 5.19531 86.1567 5.19531C88.0315 5.19531 89.6532 5.59489 91.0297 6.398C92.4022 7.20111 93.4583 8.3405 94.1939 9.82407C94.9296 11.3077 95.2975 13.0484 95.2975 15.0502C95.2975 17.0521 94.9257 18.8007 94.1781 20.2922C93.4306 21.7837 92.3705 22.931 90.998 23.7301C89.6255 24.5293 88.0078 24.9328 86.1528 24.9328C84.2859 24.9289 82.6602 24.5293 81.2877 23.7301ZM90.294 20.2882C91.2868 19.0697 91.7812 17.3211 91.7812 15.0463C91.7812 12.7714 91.2868 11.0307 90.294 9.82012C89.3012 8.60952 87.9248 8.00422 86.1607 8.00422C84.3768 8.00422 82.9885 8.60952 81.9997 9.82012C81.0069 11.0307 80.5125 12.7714 80.5125 15.0463C80.5125 17.3211 81.0069 19.0697 81.9997 20.2882C82.9925 21.5067 84.3768 22.116 86.1607 22.116C87.9248 22.116 89.3012 21.5067 90.294 20.2882Z" fill="white"/>
<path d="M101.881 22.8804C100.516 21.5155 99.8359 19.5216 99.8359 16.9026V5.4375H103.273V17.0925C103.273 18.7501 103.665 20.0003 104.448 20.8469C105.231 21.6935 106.378 22.1169 107.885 22.1169C109.376 22.1169 110.515 21.6896 111.295 20.8351C112.078 19.9805 112.469 18.7343 112.469 17.0964V5.4375H115.906V16.9026C115.906 19.5058 115.222 21.4918 113.858 22.8685C112.493 24.2413 110.499 24.9297 107.881 24.9297C105.247 24.9258 103.245 24.2453 101.881 22.8804Z" fill="white"/>
<path d="M121.039 24.6805V5.4375H124.559V21.7885H133.538V24.6805H121.039Z" fill="white"/>
<path d="M64.0329 31.4352C64.5629 31.7715 64.9743 32.2462 65.267 32.8634C65.5597 33.4806 65.706 34.1927 65.706 35.0037C65.706 35.8266 65.5597 36.5466 65.267 37.1678C64.9743 37.7889 64.5629 38.2716 64.0329 38.6197C63.5029 38.9678 62.8938 39.138 62.2016 39.138C61.5846 39.138 61.0467 39.0034 60.5878 38.7305C60.129 38.4614 59.781 38.0777 59.5436 37.5792V39.0232H58.2305V27.5938H59.5436V32.4915C59.781 31.9931 60.129 31.6093 60.5878 31.3403C61.0467 31.0713 61.5846 30.9328 62.2016 30.9328C62.8938 30.9328 63.5029 31.1029 64.0329 31.4352ZM63.7244 37.2508C64.1476 36.7168 64.3573 35.9651 64.3573 35.0037C64.3573 34.0621 64.1476 33.3342 63.7244 32.812C63.3012 32.2937 62.7079 32.0326 61.9406 32.0326C61.1732 32.0326 60.5799 32.2937 60.1646 32.812C59.7493 33.3302 59.5397 34.0701 59.5397 35.0354C59.5397 36.0007 59.7493 36.7405 60.1646 37.2667C60.5799 37.7928 61.1732 38.054 61.9406 38.054C62.7079 38.054 63.3012 37.7889 63.7244 37.2508Z" fill="white"/>
<path d="M71.8892 38.6402C71.3197 38.304 70.8846 37.8253 70.5761 37.2041C70.2675 36.583 70.1133 35.859 70.1133 35.0401C70.1133 34.2211 70.2675 33.4972 70.5761 32.876C70.8846 32.2549 71.3236 31.7762 71.8892 31.4399C72.4548 31.1037 73.1114 30.9375 73.859 30.9375C74.6065 30.9375 75.2631 31.1037 75.8366 31.4399C76.4102 31.7762 76.8492 32.2549 77.1577 32.876C77.4662 33.4972 77.6205 34.2211 77.6205 35.0401C77.6205 35.859 77.4662 36.583 77.1577 37.2041C76.8492 37.8253 76.4102 38.304 75.8366 38.6402C75.2631 38.9765 74.6026 39.1427 73.859 39.1427C73.1154 39.1427 72.4588 38.9765 71.8892 38.6402ZM75.6547 37.2872C76.07 36.7729 76.2796 36.0252 76.2796 35.0401C76.2796 34.0787 76.07 33.335 75.6468 32.8088C75.2236 32.2826 74.6303 32.0215 73.8629 32.0215C73.0956 32.0215 72.5023 32.2826 72.0791 32.8088C71.6559 33.335 71.4462 34.0787 71.4462 35.0401C71.4462 36.0133 71.6559 36.761 72.0712 37.2793C72.4865 37.7976 73.0837 38.0587 73.8629 38.0587C74.6382 38.0547 75.2354 37.7976 75.6547 37.2872Z" fill="white"/>
<path d="M83.8111 38.6402C83.2415 38.304 82.8064 37.8253 82.4979 37.2041C82.1894 36.583 82.0352 35.859 82.0352 35.0401C82.0352 34.2211 82.1894 33.4972 82.4979 32.876C82.8064 32.2549 83.2455 31.7762 83.8111 31.4399C84.3767 31.1037 85.0333 30.9375 85.7808 30.9375C86.5284 30.9375 87.185 31.1037 87.7585 31.4399C88.332 31.7762 88.7711 32.2549 89.0796 32.876C89.3881 33.4972 89.5424 34.2211 89.5424 35.0401C89.5424 35.859 89.3881 36.583 89.0796 37.2041C88.7711 37.8253 88.332 38.304 87.7585 38.6402C87.185 38.9765 86.5245 39.1427 85.7808 39.1427C85.0333 39.1427 84.3767 38.9765 83.8111 38.6402ZM87.5726 37.2872C87.9879 36.7729 88.1976 36.0252 88.1976 35.0401C88.1976 34.0787 87.9879 33.335 87.5647 32.8088C87.1415 32.2826 86.5482 32.0215 85.7808 32.0215C85.0135 32.0215 84.4202 32.2826 83.997 32.8088C83.5738 33.335 83.3641 34.0787 83.3641 35.0401C83.3641 36.0133 83.5738 36.761 83.9891 37.2793C84.4044 37.7976 85.0017 38.0587 85.7808 38.0587C86.56 38.0547 87.1573 37.7976 87.5726 37.2872Z" fill="white"/>
<path d="M101.462 39.0272H99.7615L95.739 35.249V39.0272H94.4258V27.5938H95.739V34.7149L99.4214 31.1464H101.091L97.1668 34.9246L101.462 39.0272Z" fill="white"/>
<path d="M105.449 39.0272V27.5938H106.762V39.0311H105.449V39.0272Z" fill="white"/>
<path d="M112.004 27.7031H113.594V29.1788H112.004V27.7031ZM112.13 39.0218V31.1252H113.444V39.0258H112.13V39.0218Z" fill="white"/>
<path d="M118.328 38.1221L118.767 37.1488C119.19 37.4851 119.618 37.7264 120.057 37.8689C120.496 38.0153 120.99 38.0865 121.54 38.0865C122.125 38.0865 122.568 37.9876 122.877 37.7858C123.185 37.588 123.34 37.2952 123.34 36.9194C123.34 36.6068 123.237 36.3576 123.031 36.1717C122.825 35.9897 122.485 35.8433 122.011 35.7325L120.682 35.4239C120.009 35.2736 119.499 35.0125 119.139 34.6446C118.783 34.2766 118.605 33.8217 118.605 33.2836C118.605 32.5794 118.882 32.0137 119.432 31.5785C119.981 31.1473 120.717 30.9297 121.639 30.9297C122.189 30.9297 122.715 31.0207 123.213 31.1987C123.711 31.3767 124.127 31.6339 124.463 31.9702L124.024 32.9276C123.3 32.3104 122.505 32.0018 121.639 32.0018C121.089 32.0018 120.658 32.1086 120.349 32.3183C120.041 32.528 119.887 32.8247 119.887 33.2006C119.887 33.5131 119.981 33.7663 120.171 33.9562C120.361 34.1461 120.666 34.2885 121.089 34.3874L122.434 34.7118C123.169 34.8859 123.715 35.147 124.071 35.4991C124.427 35.8512 124.605 36.3062 124.605 36.868C124.605 37.5603 124.328 38.1102 123.771 38.5216C123.213 38.9331 122.454 39.1388 121.492 39.1388C120.159 39.1428 119.103 38.8025 118.328 38.1221Z" fill="white"/>
<path d="M133.62 38.0355L133.557 39.072C133.308 39.1156 133.039 39.1353 132.746 39.1353C131.793 39.1353 131.077 38.8861 130.598 38.3876C130.116 37.8891 129.875 37.1968 129.875 36.3106V32.1566H128.336V31.128H129.875V28.7266H131.188V31.128H133.426V32.1645H131.188V36.2196C131.188 37.4619 131.761 38.083 132.908 38.083C133.146 38.0869 133.383 38.0672 133.62 38.0355Z" fill="white"/>
</svg>
